<?xml version="1.0" encoding="UTF-8"?>
<svg width="136px" height="50px" viewBox="0 0 136 50" version="1.1" xmlns="http://www.w3.org/2000/svg" xmlns:xlink="http://www.w3.org/1999/xlink">
    <!-- Generator: sketchtool 51.3 (57544) - http://www.bohemiancoding.com/sketch -->
    <title>53A543EB-A502-4E05-98A7-DBC9444DA2A0</title>
    <desc>Created with sketchtool.</desc>
    <defs>
        <polygon id="path-1" points="0.0464644812 0 50.3813973 0 50.3813973 49.9999474 0.0464644812 49.9999474"></polygon>
    </defs>
    <g id="Symbols" stroke="none" stroke-width="1" fill="none" fill-rule="evenodd">
        <g id="MENÚ-NAVBAR" transform="translate(0.000000, -50.000000)">
            <g id="Group-12" transform="translate(0.000000, 50.000000)">
                <path d="M19.6169278,24.1627588 L13.7923313,24.1627588 L13.7923313,12.0287475 L19.6169278,12.0287475 C23.2392703,12.0287475 25.6267532,14.5416555 25.6267532,18.0956216 C25.6267532,21.6495876 23.2392703,24.1627588 19.6169278,24.1627588 M21.2666477,0 L0,0 L0,50 L13.7923313,50 L13.7923313,36.1907168 L21.2666477,36.1907168 C31.8838133,36.1907168 39.7727273,28.5501503 39.7727273,18.0648319 C39.7727273,7.58030305 31.8838133,0 21.2666477,0" id="Fill-1" fill="#FFFFFF"></path>
                <g id="Group-5" transform="translate(85.227273, 0.000000)">
                    <mask id="mask-2" fill="white">
                        <use xlink:href="#path-1"></use>
                    </mask>
                    <g id="Clip-4"></g>
                    <path d="M25.214328,35.5838947 C19.3296213,35.5838947 14.5595327,30.8452105 14.5595327,25.0004737 C14.5595327,19.1544211 19.3296213,14.416 25.214328,14.416 C31.0982404,14.416 35.8685938,19.1544211 35.8685938,25.0004737 C35.8685938,30.8452105 31.0982404,35.5838947 25.214328,35.5838947 M25.214328,-5.26315789e-05 C11.3146969,-5.26315789e-05 0.0464644812,11.1931053 0.0464644812,25.0004737 C0.0464644812,38.8073158 11.3146969,49.9999474 25.214328,49.9999474 C39.1134296,49.9999474 50.3813973,38.8073158 50.3813973,25.0004737 C50.3813973,11.1931053 39.1134296,-5.26315789e-05 25.214328,-5.26315789e-05" id="Fill-3" fill="#FFFFFF" mask="url(#mask-2)"></path>
                </g>
                <path d="M62.1954736,24.1627588 L56.3812961,24.1627588 L56.3812961,12.0287475 L62.1954736,12.0287475 C65.8110743,12.0287475 68.1940242,14.5411292 68.1940242,18.0956216 C68.1940242,21.6490613 65.8110743,24.1627588 62.1954736,24.1627588 M82.3152186,18.0648319 C82.3152186,7.57977674 74.4404163,0 63.8422425,0 L42.6136364,0 L42.6136364,50 L56.3812961,50 L56.3812961,36.19098 L62.0260497,36.19098 L69.3278006,50 L84.6590909,50 L75.2004635,32.6262243 C79.5931586,29.4025232 82.3152186,24.2256538 82.3152186,18.0648319" id="Fill-6" fill="#FFFFFF"></path>
            </g>
        </g>
    </g>
</svg>